<svg xmlns="http://www.w3.org/2000/svg" viewBox="0 0 245.478 67.041" width="242" height="66">
<path id="XMLID_17_" style="fill:#F89D0E;" d="M-203.397-191.066h9.714v15.343c-4.29,4.785-10.23,7.178-17.818,7.178
	c-6.352,0-11.684-2.104-15.994-6.311c-4.31-4.208-6.465-9.518-6.465-15.932c0-6.414,2.197-11.765,6.589-16.056
	c4.393-4.289,9.692-6.434,15.901-6.434c6.208,0,11.601,2.042,16.179,6.125l-5.011,7.239c-1.939-1.691-3.723-2.856-5.352-3.496
	c-1.63-0.639-3.393-0.959-5.29-0.959c-3.672,0-6.765,1.248-9.281,3.743c-2.516,2.496-3.774,5.785-3.774,9.868
	s1.206,7.353,3.62,9.807c2.413,2.454,5.29,3.681,8.631,3.681c3.341,0,6.126-0.638,8.353-1.917V-191.066z"/>
<path id="XMLID_21_" style="fill:#F89D0E;" d="M-148.703-174.979c-4.372,4.269-9.755,6.404-16.148,6.404
	c-6.393,0-11.776-2.135-16.148-6.404c-4.372-4.269-6.559-9.579-6.559-15.932c0-6.351,2.186-11.662,6.559-15.931
	c4.371-4.269,9.754-6.404,16.148-6.404c6.393,0,11.776,2.134,16.148,6.404c4.371,4.269,6.558,9.58,6.558,15.931
	C-142.145-184.559-144.332-179.249-148.703-174.979z M-151.983-190.88c0-3.856-1.237-7.146-3.712-9.868
	c-2.475-2.722-5.517-4.084-9.126-4.084c-3.61,0-6.651,1.361-9.126,4.084c-2.475,2.722-3.712,6.012-3.712,9.868
	c0,3.857,1.238,7.136,3.712,9.837c2.475,2.702,5.516,4.052,9.126,4.052c3.609,0,6.651-1.35,9.126-4.052
	C-153.22-183.744-151.983-187.023-151.983-190.88z"/>
<path id="XMLID_24_" style="fill:#428BCA;" d="M-124.234-203.656c-0.928,0.763-1.392,1.774-1.392,3.032c0,1.259,0.566,2.258,1.701,3
	c1.134,0.743,3.753,1.619,7.858,2.63c4.104,1.011,7.29,2.527,9.559,4.548c2.268,2.021,3.403,4.971,3.403,8.847
	c0,3.877-1.454,7.022-4.362,9.435c-2.908,2.413-6.734,3.62-11.477,3.62c-6.848,0-13.014-2.538-18.499-7.611l5.754-7.053
	c4.66,4.084,8.971,6.126,12.93,6.126c1.773,0,3.166-0.382,4.177-1.145c1.01-0.763,1.516-1.794,1.516-3.094
	c0-1.299-0.536-2.33-1.608-3.094c-1.073-0.763-3.197-1.536-6.373-2.32c-5.033-1.196-8.714-2.753-11.044-4.671
	c-2.331-1.918-3.496-4.928-3.496-9.033c0-4.104,1.474-7.27,4.424-9.497c2.949-2.227,6.63-3.341,11.044-3.341
	c2.887,0,5.774,0.495,8.662,1.485c2.887,0.99,5.403,2.393,7.548,4.207l-4.888,7.053c-3.754-2.846-7.631-4.269-11.631-4.269
	C-122.037-204.801-123.306-204.419-124.234-203.656z"/>
<path id="XMLID_28_" style="fill:#428BCA;" d="M-63.695-212.535v8.6h-21.531v8.909h19.365v8.229h-19.365v8.972h22.211v8.537h-31.863
	v-43.247H-63.695z"/>
<path id="XMLID_4_" style="fill:#DDDDDD;" d="M26.144-187.663l7.672-24.872h10.084l7.61,24.872l8.601-24.872h10.456l-15.096,43.247
	h-7.177l-9.467-30.069l-9.404,30.069h-7.177L7.15-212.535h10.456L26.144-187.663z"/>
<path id="XMLID_8_" style="fill:#DDDDDD;" d="M105.492-208.668c3.032,2.579,4.548,6.538,4.548,11.88
	c0,5.342-1.558,9.249-4.671,11.725c-3.115,2.474-7.868,3.712-14.26,3.712h-5.754v12.064h-9.652v-43.247h15.282
	C97.624-212.535,102.461-211.245,105.492-208.668z M98.408-191.653c1.155-1.299,1.733-3.195,1.733-5.692
	c0-2.495-0.753-4.269-2.259-5.321c-1.505-1.051-3.847-1.578-7.022-1.578h-5.506v14.54h6.496
	C95.067-189.704,97.253-190.353,98.408-191.653z"/>
<g id="XMLID_2_">
	<path id="XMLID_38_" style="fill:#428BCA;" d="M4.52-190.911c0,16.57-13.43,30-30,30c-4.81,0-9.35-1.13-13.38-3.15
		c-1.91-0.95-3.69-2.09-5.33-3.42c-0.11-0.08-0.22-0.16-0.32-0.25c-1.46-1.19-2.8-2.51-4-3.96c-0.07-0.07-0.14-0.15-0.2-0.23
		l4.99-4.99c0.06,0.08,0.13,0.16,0.2,0.24c1.16,1.48,2.5,2.81,3.99,3.96c0.11,0.08,0.22,0.17,0.33,0.24c1.71,1.3,3.61,2.34,5.65,3.1
		c2.51,0.95,5.23,1.46,8.07,1.46c12.7,0,23-10.3,23-23c0-12.7-10.3-23-23-23c-12.7,0-23,10.3-23,23c0,2.82,0.51,5.53,1.44,8.03
		l-5.31,5.31c-2-4.02-3.13-8.55-3.13-13.34c0-16.57,13.43-30,30-30C-8.91-220.911,4.52-207.481,4.52-190.911z"/>
	<path id="XMLID_33_" style="opacity:0.12;" d="M-33.55-169.371l-5.31,5.31c-1.91-0.95-3.69-2.09-5.33-3.42
		c-0.11-0.08-0.22-0.16-0.32-0.25l4.98-4.98c0.11,0.08,0.22,0.17,0.33,0.24C-37.49-171.171-35.59-170.131-33.55-169.371z"/>
	<path id="XMLID_14_" style="fill:#F89D0E;" d="M-25.863-206.274c-8.84,0-16,7.16-16,16c0,3.25,0.98,6.28,2.65,8.81l-4.55,4.55
		l-4.99,4.98c1.2,1.45,2.54,2.77,4,3.96c0.1,0.09,0.21,0.17,0.32,0.25l4.99-4.99l4.44-4.44c2.59,1.81,5.74,2.88,9.14,2.88
		c8.84,0,16-7.16,16-16C-9.863-199.114-17.023-206.274-25.863-206.274z M-25.863-180.274c-5.52,0-10-4.48-10-10
		c0-5.52,4.48-10,10-10c5.52,0,10,4.48,10,10C-15.863-184.754-20.343-180.274-25.863-180.274z"/>
</g>
<g id="XMLID_5_">
	<path id="XMLID_16_" style="fill:#428BCA;" d="M67.041,33.52c0,18.514-15.006,33.52-33.52,33.52c-5.375,0-10.447-1.263-14.95-3.52
		c-2.134-1.061-4.123-2.335-5.955-3.821c-0.123-0.089-0.246-0.179-0.358-0.279c-1.631-1.33-3.129-2.805-4.469-4.425
		c-0.078-0.078-0.156-0.168-0.223-0.257l5.576-5.576c0.067,0.089,0.145,0.179,0.223,0.268c1.296,1.654,2.793,3.14,4.458,4.425
		c0.123,0.089,0.246,0.19,0.369,0.268c1.911,1.453,4.034,2.615,6.313,3.464c2.804,1.061,5.844,1.631,9.017,1.631
		c14.19,0,25.699-11.509,25.699-25.699c0-14.19-11.509-25.699-25.699-25.699C19.33,7.821,7.821,19.33,7.821,33.52
		c0,3.151,0.57,6.179,1.609,8.972l-5.933,5.933C1.263,43.934,0,38.873,0,33.52C0,15.006,15.006,0,33.52,0
		C52.035,0,67.041,15.006,67.041,33.52z"/>
	<path id="XMLID_15_" style="opacity:0.12;" d="M24.503,57.588l-5.933,5.933c-2.134-1.061-4.123-2.335-5.955-3.821
		c-0.123-0.089-0.246-0.179-0.358-0.279l5.564-5.564c0.123,0.089,0.246,0.19,0.369,0.268C20.101,55.577,22.224,56.739,24.503,57.588
		z"/>
	<path id="XMLID_6_" style="fill:#F89D0E;" d="M33.092,16.355c-9.877,0-17.878,8-17.878,17.878c0,3.631,1.095,7.017,2.961,9.844
		l-5.084,5.084l-5.576,5.564c1.341,1.62,2.838,3.095,4.469,4.425c0.112,0.101,0.235,0.19,0.358,0.279l5.576-5.576l4.961-4.961
		c2.894,2.022,6.414,3.218,10.213,3.218c9.877,0,17.878-8,17.878-17.878C50.97,24.355,42.97,16.355,33.092,16.355z M33.092,45.406
		c-6.168,0-11.173-5.006-11.173-11.173c0-6.168,5.006-11.173,11.173-11.173c6.168,0,11.173,5.006,11.173,11.173
		C44.266,40.4,39.26,45.406,33.092,45.406z"/>
</g>
<g id="XMLID_3_">
	<path id="XMLID_18_" style="fill:#2B4964;" d="M96.134,30.659c0-3.797-1.983-5.101-5.043-5.101c-2.833,0-5.044,1.587-6.234,3.23
		v18.418h-7.197V19.835h7.197v3.57c1.757-2.097,5.101-4.25,9.577-4.25c6.007,0,8.897,3.4,8.897,8.728v19.325h-7.197V30.659z"/>
	<path id="XMLID_26_" style="fill:#2B4964;" d="M128.95,43.75c-1.87,2.097-5.157,4.137-9.634,4.137
		c-6.007,0-8.841-3.287-8.841-8.614V19.835h7.197v16.604c0,3.797,1.983,5.044,5.043,5.044c2.777,0,4.987-1.53,6.234-3.117V19.835
		h7.197v27.372h-7.197V43.75z"/>
	<path id="XMLID_30_" style="fill:#2B4964;" d="M141.534,33.492c0-7.764,5.44-14.337,14.451-14.337
		c9.067,0,14.508,6.574,14.508,14.337c0,7.821-5.44,14.395-14.508,14.395C146.975,47.886,141.534,41.313,141.534,33.492z
		 M163.013,33.492c0-4.25-2.55-7.934-7.027-7.934s-6.971,3.684-6.971,7.934c0,4.308,2.494,7.991,6.971,7.991
		S163.013,37.799,163.013,33.492z"/>
	<path id="XMLID_34_" style="fill:#2B4964;" d="M171.913,19.835h7.707l7.141,19.041l7.141-19.041h7.764l-10.994,27.372h-7.764
		L171.913,19.835z"/>
	<path id="XMLID_36_" style="fill:#2B4964;" d="M203.141,33.492c0-7.764,5.44-14.337,14.451-14.337
		c9.067,0,14.508,6.574,14.508,14.337c0,7.821-5.44,14.395-14.508,14.395C208.581,47.886,203.141,41.313,203.141,33.492z
		 M224.619,33.492c0-4.25-2.55-7.934-7.027-7.934c-4.477,0-6.971,3.684-6.971,7.934c0,4.308,2.494,7.991,6.971,7.991
		C222.069,41.483,224.619,37.799,224.619,33.492z"/>
	<path id="XMLID_43_" style="fill:#2B4964;" d="M240.887,38.649c2.494,0,4.591,2.097,4.591,4.591c0,2.493-2.097,4.59-4.591,4.59
		c-2.493,0-4.59-2.097-4.59-4.59C236.297,40.746,238.394,38.649,240.887,38.649z"/>
</g>
</svg>
