<svg xmlns="http://www.w3.org/2000/svg" viewBox="0 0 246.793 67.4" width="132" height="36">
<g id="Layer_1">
	<path id="XMLID_16_" style="fill:#FFFFFF;" d="M67.4,33.7c0,18.614-15.086,33.7-33.7,33.7c-5.403,0-10.503-1.269-15.03-3.538
		c-2.146-1.067-4.145-2.348-5.987-3.842c-0.124-0.09-0.247-0.18-0.359-0.281c-1.64-1.337-3.145-2.82-4.493-4.448
		c-0.079-0.079-0.157-0.169-0.225-0.258l5.605-5.605c0.067,0.09,0.146,0.18,0.225,0.27c1.303,1.663,2.808,3.157,4.482,4.448
		c0.124,0.09,0.247,0.191,0.371,0.27c1.921,1.46,4.055,2.629,6.347,3.482c2.82,1.067,5.875,1.64,9.065,1.64
		c14.266,0,25.837-11.57,25.837-25.837c0-14.266-11.57-25.837-25.837-25.837c-14.266,0-25.837,11.57-25.837,25.837
		c0,3.168,0.573,6.212,1.618,9.02l-5.965,5.965C1.269,44.169,0,39.081,0,33.7C0,15.086,15.086,0,33.7,0
		C52.314,0,67.4,15.086,67.4,33.7z"/>
	<path id="XMLID_15_" style="opacity:0.15;" d="M24.635,57.897l-5.965,5.965c-2.146-1.067-4.145-2.348-5.987-3.842
		c-0.124-0.09-0.247-0.18-0.359-0.281l5.594-5.594c0.124,0.09,0.247,0.191,0.371,0.27C20.209,55.875,22.343,57.043,24.635,57.897z"
		/>
	<path id="XMLID_6_" style="fill:#FFFFFF;" d="M33.27,16.442c-9.93,0-17.973,8.043-17.973,17.973c0,3.651,1.101,7.055,2.977,9.897
		l-5.111,5.111l-5.605,5.594c1.348,1.629,2.853,3.112,4.493,4.448c0.112,0.101,0.236,0.191,0.359,0.281l5.605-5.605l4.988-4.988
		c2.909,2.033,6.448,3.235,10.267,3.235c9.93,0,17.973-8.043,17.973-17.973C51.243,24.485,43.2,16.442,33.27,16.442z M33.27,45.649
		c-6.201,0-11.233-5.033-11.233-11.233c0-6.201,5.033-11.233,11.233-11.233c6.201,0,11.233,5.033,11.233,11.233
		C44.503,40.616,39.471,45.649,33.27,45.649z"/>
	<g id="XMLID_3_">
		<path id="XMLID_18_" style="fill:#FFFFFF;" d="M96.649,30.823c0-3.817-1.994-5.128-5.07-5.128c-2.849,0-5.071,1.595-6.267,3.248
			V47.46h-7.236V19.941h7.236v3.589c1.766-2.108,5.128-4.273,9.628-4.273c6.04,0,8.945,3.419,8.945,8.774V47.46h-7.236V30.823z"/>
		<path id="XMLID_26_" style="fill:#FFFFFF;" d="M129.641,43.984c-1.88,2.108-5.184,4.159-9.685,4.159
			c-6.04,0-8.888-3.305-8.888-8.66V19.941h7.236v16.693c0,3.817,1.994,5.071,5.07,5.071c2.792,0,5.014-1.538,6.267-3.134V19.941
			h7.236V47.46h-7.236V43.984z"/>
		<path id="XMLID_30_" style="fill:#FFFFFF;" d="M142.293,33.671c0-7.805,5.47-14.414,14.529-14.414
			c9.116,0,14.586,6.609,14.586,14.414c0,7.863-5.47,14.472-14.586,14.472C147.762,48.143,142.293,41.534,142.293,33.671z
			 M163.886,33.671c0-4.273-2.564-7.976-7.065-7.976s-7.008,3.703-7.008,7.976c0,4.331,2.507,8.034,7.008,8.034
			S163.886,38.002,163.886,33.671z"/>
		<path id="XMLID_34_" style="fill:#FFFFFF;" d="M172.834,19.941h7.748l7.179,19.143l7.179-19.143h7.805L191.693,47.46h-7.805
			L172.834,19.941z"/>
		<path id="XMLID_36_" style="fill:#FFFFFF;" d="M204.23,33.671c0-7.805,5.469-14.414,14.528-14.414
			c9.116,0,14.586,6.609,14.586,14.414c0,7.863-5.47,14.472-14.586,14.472C209.699,48.143,204.23,41.534,204.23,33.671z
			 M225.823,33.671c0-4.273-2.563-7.976-7.065-7.976c-4.501,0-7.008,3.703-7.008,7.976c0,4.331,2.508,8.034,7.008,8.034
			C223.259,41.705,225.823,38.002,225.823,33.671z"/>
		<path id="XMLID_43_" style="fill:#FFFFFF;" d="M242.178,38.856c2.507,0,4.615,2.108,4.615,4.615c0,2.507-2.108,4.614-4.615,4.614
			c-2.507,0-4.614-2.108-4.614-4.614C237.563,40.964,239.671,38.856,242.178,38.856z"/>
	</g>
</g>
</svg>
