<?xml version="1.0" standalone="no"?><!DOCTYPE svg PUBLIC "-//W3C//DTD SVG 1.1//EN" "http://www.w3.org/Graphics/SVG/1.1/DTD/svg11.dtd"><svg class="icon" height="512" viewBox="0 0 1024 1024" version="1.1" xmlns="http://www.w3.org/2000/svg"><path d="M768 511.957333c0.0512-3.456-0.546133-6.741333-1.314133-10.112-0.341333-1.450667-0.554667-2.858667-1.066667-4.266666-2.304-6.954667-5.717333-13.525333-11.477333-18.688l-427.178667-382.762667a42.461867 42.461867 0 0 0-60.288 3.754667c-15.573333 17.834667-13.909333 45.312 3.712 61.098666l391.722667 350.976-391.722667 351.061334c-17.621333 15.786667-19.285333 43.264-3.712 61.098666a42.461867 42.461867 0 0 0 60.288 3.754667l427.178667-382.848c5.76-5.162667 9.173333-11.733333 11.477333-18.688 0.512-1.408 0.725333-2.816 1.066667-4.266667 0.768-3.370667 1.365333-6.656 1.322666-10.112" /></svg>